<svg width="56" height="56" viewBox="0 0 56 56" fill="none" xmlns="http://www.w3.org/2000/svg">
<rect width="56" height="56" rx="20.8" fill="#F4F5FB"/>
<path fill-rule="evenodd" clip-rule="evenodd" d="M38.9374 27.4347C33.8507 26.1234 29.8759 22.1486 28.5646 17.0619L27.9999 14.8721L27.4352 17.0619C26.1239 22.1486 22.1491 26.1234 17.0624 27.4347L14.8726 27.9994L17.0624 28.5652C22.1491 29.8766 26.1239 33.8514 27.4352 38.9369L27.9999 41.1279L28.5646 38.9369C29.8759 33.8514 33.8507 29.8766 38.9374 28.5652L41.1272 27.9994L38.9374 27.4347Z" fill="#EB0A1E"/>
<path fill-rule="evenodd" clip-rule="evenodd" d="M35.8761 23.038C35.8761 21.6824 37.3624 20.1225 38.7916 20.1225C37.4161 20.1225 35.8761 18.5464 35.8761 17.2082C35.8761 18.5464 34.3501 20.1225 32.9617 20.1225C34.2976 20.1225 35.8761 21.6742 35.8761 23.038Z" fill="#EB0A1E"/>
</svg>
