<svg width="56" height="56" viewBox="0 0 56 56" fill="none" xmlns="http://www.w3.org/2000/svg">
<rect width="56" height="56" rx="20.8" fill="#F4F5FB"/>
<path d="M26.6877 34.0083H35.4668C35.7147 34.0083 35.9226 33.9244 36.0903 33.7567C36.258 33.589 36.3418 33.3812 36.3418 33.1333V27.3583C36.3418 27.1104 36.258 26.9026 36.0903 26.7349C35.9226 26.5671 35.7147 26.4833 35.4668 26.4833H26.6877C26.4397 26.4833 26.2319 26.5671 26.0642 26.7349C25.8965 26.9026 25.8127 27.1104 25.8127 27.3583V33.1333C25.8127 33.3812 25.8965 33.589 26.0642 33.7567C26.2319 33.9244 26.4397 34.0083 26.6877 34.0083ZM18.0835 37.3333C17.6168 37.3333 17.2085 37.1583 16.8585 36.8083C16.5085 36.4583 16.3335 36.05 16.3335 35.5833V20.4166C16.3335 19.95 16.5085 19.5416 16.8585 19.1916C17.2085 18.8416 17.6168 18.6666 18.0835 18.6666H37.9168C38.3981 18.6666 38.8101 18.8416 39.1528 19.1916C39.4955 19.5416 39.6668 19.95 39.6668 20.4166V35.5833C39.6668 36.05 39.4955 36.4583 39.1528 36.8083C38.8101 37.1583 38.3981 37.3333 37.9168 37.3333H18.0835ZM18.0835 35.5833H37.9168V20.4166H18.0835V35.5833Z" fill="#EB0A1E"/>
</svg>
