<svg width="56" height="56" viewBox="0 0 56 56" fill="none" xmlns="http://www.w3.org/2000/svg">
<rect width="56" height="56" rx="20.8" fill="#F4F5FB"/>
<path fill-rule="evenodd" clip-rule="evenodd" d="M19.2969 16.3334H23.2402C24.8852 16.3334 26.2035 17.675 26.2035 19.3212V23.2984C26.2035 24.955 24.8852 26.285 23.2402 26.285H19.2969C17.6635 26.285 16.3335 24.955 16.3335 23.2984V19.3212C16.3335 17.675 17.6635 16.3334 19.2969 16.3334ZM19.2968 29.7147H23.2402C24.8852 29.7147 26.2035 31.0459 26.2035 32.7025V36.6797C26.2035 38.3247 24.8852 39.6664 23.2402 39.6664H19.2968C17.6635 39.6664 16.3335 38.3247 16.3335 36.6797V32.7025C16.3335 31.0459 17.6635 29.7147 19.2968 29.7147ZM36.7037 16.3334H32.7604C31.1154 16.3334 29.797 17.6751 29.797 19.3212V23.2984C29.797 24.9551 31.1154 26.2851 32.7604 26.2851H36.7037C38.337 26.2851 39.667 24.9551 39.667 23.2984V19.3212C39.667 17.6751 38.337 16.3334 36.7037 16.3334ZM32.7604 29.7147H36.7037C38.337 29.7147 39.667 31.0459 39.667 32.7025V36.6797C39.667 38.3247 38.337 39.6664 36.7037 39.6664H32.7604C31.1154 39.6664 29.797 38.3247 29.797 36.6797V32.7025C29.797 31.0459 31.1154 29.7147 32.7604 29.7147Z" fill="#EB0A1E"/>
</svg>
