<svg width="56" height="56" viewBox="0 0 56 56" fill="none" xmlns="http://www.w3.org/2000/svg">
<rect width="56" height="56" rx="20.8" fill="#F4F5FB"/>
<path d="M18.1709 31.2959C17.923 31.2959 17.7152 31.212 17.5475 31.0443C17.3798 30.8766 17.2959 30.6688 17.2959 30.4209C17.2959 30.1875 17.3785 29.9834 17.5438 29.8084C17.7091 29.6334 17.9084 29.5459 18.1417 29.5459H26.0167C26.2646 29.5459 26.4725 29.6297 26.6402 29.7974C26.8079 29.9651 26.8917 30.173 26.8917 30.4209C26.8917 30.6542 26.8091 30.8584 26.6438 31.0334C26.4785 31.2084 26.2792 31.2959 26.0459 31.2959H18.1709ZM18.1709 36.1667C17.923 36.1667 17.7152 36.0829 17.5475 35.9151C17.3798 35.7474 17.2959 35.5396 17.2959 35.2917C17.2959 35.0584 17.3785 34.8542 17.5438 34.6792C17.7091 34.5042 17.9084 34.4167 18.1417 34.4167H26.0167C26.2646 34.4167 26.4725 34.5006 26.6402 34.6683C26.8079 34.836 26.8917 35.0438 26.8917 35.2917C26.8917 35.525 26.8091 35.7292 26.6438 35.9042C26.4785 36.0792 26.2792 36.1667 26.0459 36.1667H18.1709ZM18.1709 26.4542C17.923 26.4542 17.7152 26.3704 17.5475 26.2026C17.3798 26.0349 17.2959 25.8271 17.2959 25.5792C17.2959 25.3459 17.3785 25.1417 17.5438 24.9667C17.7091 24.7917 17.9084 24.7042 18.1417 24.7042H26.0167C26.2646 24.7042 26.4725 24.7881 26.6402 24.9558C26.8079 25.1235 26.8917 25.3313 26.8917 25.5792C26.8917 25.8125 26.8091 26.0167 26.6438 26.1917C26.4785 26.3667 26.2792 26.4542 26.0459 26.4542H18.1709ZM18.1709 21.5834C17.923 21.5834 17.7152 21.4995 17.5475 21.3318C17.3798 21.1641 17.2959 20.9563 17.2959 20.7084C17.2959 20.475 17.3785 20.2709 17.5438 20.0959C17.7091 19.9209 17.9084 19.8334 18.1417 19.8334H26.0167C26.2646 19.8334 26.4725 19.9172 26.6402 20.0849C26.8079 20.2526 26.8917 20.4605 26.8917 20.7084C26.8917 20.9417 26.8091 21.1459 26.6438 21.3209C26.4785 21.4959 26.2792 21.5834 26.0459 21.5834H18.1709ZM30.8876 36.1667C30.6396 36.1667 30.4318 36.0829 30.2641 35.9151C30.0964 35.7474 30.0126 35.5396 30.0126 35.2917V20.7084C30.0126 20.4605 30.0964 20.2526 30.2641 20.0849C30.4318 19.9172 30.6396 19.8334 30.8876 19.8334H37.8584C38.1063 19.8334 38.3141 19.9172 38.4818 20.0849C38.6495 20.2526 38.7334 20.4605 38.7334 20.7084V35.2917C38.7334 35.5396 38.6495 35.7474 38.4818 35.9151C38.3141 36.0829 38.1063 36.1667 37.8584 36.1667H30.8876ZM31.7626 21.5834V34.4167H36.9834V21.5834H31.7626Z" fill="#EB0A1E"/>
</svg>
