<svg width="56" height="56" viewBox="0 0 56 56" fill="none" xmlns="http://www.w3.org/2000/svg">
<rect width="56" height="56" rx="20.8" fill="#F4F5FB"/>
<path d="M30.3333 38.5C30.1 38.5 29.8958 38.4125 29.7208 38.2375C29.5458 38.0625 29.4583 37.8583 29.4583 37.625C29.4583 37.3722 29.5458 37.1632 29.7208 36.9979C29.8958 36.8326 30.1 36.75 30.3333 36.75C31.4806 36.75 32.4479 36.5167 33.2354 36.05C34.0229 35.5833 34.4167 35.0389 34.4167 34.4167C34.4167 33.9694 34.1299 33.5319 33.5563 33.1042C32.9826 32.6764 32.2097 32.3458 31.2375 32.1125L32.6083 30.7417C33.8333 31.1111 34.7326 31.6215 35.3063 32.2729C35.8799 32.9243 36.1667 33.6389 36.1667 34.4167C36.1667 35.7194 35.5736 36.7257 34.3875 37.4354C33.2014 38.1451 31.85 38.5 30.3333 38.5ZM21 29.925C19.7556 29.6528 18.8611 29.225 18.3167 28.6417C17.7722 28.0583 17.5 27.4556 17.5 26.8333C17.5 26.1528 17.7528 25.5403 18.2583 24.9958C18.7639 24.4514 19.9306 23.8486 21.7583 23.1875C23.0417 22.7208 23.8681 22.3417 24.2375 22.05C24.6069 21.7583 24.7917 21.4181 24.7917 21.0292C24.7917 20.5431 24.5778 20.125 24.15 19.775C23.7222 19.425 23.0611 19.25 22.1667 19.25C21.6417 19.25 21.1944 19.3181 20.825 19.4542C20.4556 19.5903 20.125 19.8042 19.8333 20.0958C19.6778 20.2514 19.4785 20.3438 19.2354 20.3729C18.9924 20.4021 18.7736 20.3389 18.5792 20.1833C18.3653 20.0278 18.2535 19.8333 18.2438 19.6C18.234 19.3667 18.3069 19.1625 18.4625 18.9875C18.7931 18.5597 19.2889 18.2049 19.95 17.9229C20.6111 17.641 21.35 17.5 22.1667 17.5C23.4889 17.5 24.5486 17.816 25.3458 18.4479C26.1431 19.0799 26.5417 19.9403 26.5417 21.0292C26.5417 21.8264 26.2646 22.5021 25.7104 23.0563C25.1563 23.6104 24.0722 24.1889 22.4583 24.7917C21.1556 25.2778 20.2951 25.6618 19.8771 25.9438C19.459 26.2257 19.25 26.5222 19.25 26.8333C19.25 27.1444 19.5125 27.441 20.0375 27.7229C20.5625 28.0049 21.35 28.2722 22.4 28.525L21 29.925ZM35.4667 25.4333L31.7333 21.7L33.0458 20.3875C33.3958 20.0375 33.7847 19.8625 34.2125 19.8625C34.6403 19.8625 35.0292 20.0375 35.3792 20.3875L36.7792 21.7875C37.1292 22.1375 37.3042 22.5264 37.3042 22.9542C37.3042 23.3819 37.1292 23.7708 36.7792 24.1208L35.4667 25.4333ZM20.4167 36.75H21.6417L31.7042 26.6875L30.4792 25.4625L20.4167 35.525V36.75ZM19.1042 38.5C18.9875 38.5 18.8854 38.4563 18.7979 38.3688C18.7104 38.2813 18.6667 38.1792 18.6667 38.0625V34.9417C18.6667 34.9028 18.7056 34.8056 18.7833 34.65L30.4792 22.9542L34.2125 26.6875L22.5167 38.3833C22.4778 38.4222 22.3806 38.4611 22.225 38.5H19.1042Z" fill="#EB0A1E"/>
</svg>
