<svg width="56" height="56" viewBox="0 0 56 56" fill="none" xmlns="http://www.w3.org/2000/svg">
<rect width="56" height="56" rx="20.8" fill="#F4F5FB"/>
<path d="M35.9275 37.6075L28.0262 29.7062L24.955 32.7775C25.1475 33.075 25.2656 33.3637 25.3094 33.6437C25.3531 33.9237 25.375 34.23 25.375 34.5625C25.375 35.6825 24.9987 36.6187 24.2462 37.3712C23.4937 38.1237 22.5575 38.5 21.4375 38.5C20.3175 38.5 19.3812 38.1237 18.6287 37.3712C17.8763 36.6187 17.5 35.6825 17.5 34.5625C17.5 33.4425 17.8763 32.5062 18.6287 31.7537C19.3812 31.0012 20.3175 30.625 21.4375 30.625C21.7525 30.625 22.0631 30.6687 22.3694 30.7562C22.6756 30.8437 22.995 30.975 23.3275 31.15L26.3725 28.105L23.275 25.0075C22.9775 25.1475 22.6756 25.2437 22.3694 25.2962C22.0631 25.3487 21.7525 25.375 21.4375 25.375C20.3175 25.375 19.3812 24.9987 18.6287 24.2462C17.8763 23.4937 17.5 22.5575 17.5 21.4375C17.5 20.3175 17.8763 19.3812 18.6287 18.6287C19.3812 17.8762 20.3175 17.5 21.4375 17.5C22.5575 17.5 23.4937 17.8762 24.2462 18.6287C24.9987 19.3812 25.375 20.3175 25.375 21.4375C25.375 21.77 25.3531 22.085 25.3094 22.3825C25.2656 22.68 25.1737 22.96 25.0337 23.2225L38.5262 36.715V37.6075H35.9275ZM31.1237 26.7662L29.3912 25.0337L35.9275 18.4975H38.5262V19.3637L31.1237 26.7662ZM21.4375 23.8C22.1025 23.8 22.6625 23.5725 23.1175 23.1175C23.5725 22.6625 23.8 22.1025 23.8 21.4375C23.8 20.7725 23.5725 20.2125 23.1175 19.7575C22.6625 19.3025 22.1025 19.075 21.4375 19.075C20.7725 19.075 20.2125 19.3025 19.7575 19.7575C19.3025 20.2125 19.075 20.7725 19.075 21.4375C19.075 22.1025 19.3025 22.6625 19.7575 23.1175C20.2125 23.5725 20.7725 23.8 21.4375 23.8ZM28.0787 28.6037C28.2187 28.6037 28.3369 28.5556 28.4331 28.4594C28.5294 28.3631 28.5775 28.245 28.5775 28.105C28.5775 27.965 28.5294 27.8469 28.4331 27.7506C28.3369 27.6544 28.2187 27.6062 28.0787 27.6062C27.9387 27.6062 27.8206 27.6544 27.7244 27.7506C27.6281 27.8469 27.58 27.965 27.58 28.105C27.58 28.245 27.6281 28.3631 27.7244 28.4594C27.8206 28.5556 27.9387 28.6037 28.0787 28.6037ZM21.4375 36.925C22.1025 36.925 22.6625 36.6975 23.1175 36.2425C23.5725 35.7875 23.8 35.2275 23.8 34.5625C23.8 33.8975 23.5725 33.3375 23.1175 32.8825C22.6625 32.4275 22.1025 32.2 21.4375 32.2C20.7725 32.2 20.2125 32.4275 19.7575 32.8825C19.3025 33.3375 19.075 33.8975 19.075 34.5625C19.075 35.2275 19.3025 35.7875 19.7575 36.2425C20.2125 36.6975 20.7725 36.925 21.4375 36.925Z" fill="#EB0A1E"/>
</svg>
