<svg width="56" height="56" viewBox="0 0 56 56" fill="none" xmlns="http://www.w3.org/2000/svg">
<rect width="56" height="56" rx="20.8" fill="#F4F5FB"/>
<path fill-rule="evenodd" clip-rule="evenodd" d="M23.8323 17.5C24.3223 17.5 24.7201 17.8901 24.7201 18.3718C24.7201 18.8522 24.3234 19.2424 23.8323 19.2424L21.9318 19.2435C20.3544 19.2458 19.0711 20.5054 19.0711 22.0533V24.2223C19.0711 24.7028 18.6721 25.0941 18.1821 25.0941C17.6921 25.0941 17.2943 24.7028 17.2943 24.2223V22.0533C17.2943 19.5455 19.3744 17.5034 21.9306 17.5011L23.8311 17.5H23.8323ZM32.2005 17.5003H34.059C36.6222 17.5003 38.7059 19.5436 38.7059 22.057V24.2227C38.7059 24.7032 38.3092 25.0944 37.818 25.0944C37.328 25.0944 36.9302 24.7032 36.9302 24.2227V22.057C36.9302 20.5046 35.6422 19.2415 34.059 19.2415H32.2005C31.7105 19.2415 31.3127 18.8526 31.3127 18.3721C31.3127 17.8904 31.7105 17.5003 32.2005 17.5003ZM31.2226 21.8665H24.778C23.3033 21.8813 22.118 23.0631 22.1308 24.5103V25.9632C22.1343 26.1326 22.2731 26.271 22.4458 26.2767H33.5525C33.7263 26.2721 33.8651 26.1337 33.871 25.9632V24.5103C33.8721 23.8113 33.5968 23.1398 33.0998 22.6398C32.6063 22.1445 31.9285 21.8665 31.2226 21.8665ZM16.0555 28.0481H39.9453C40.4353 28.0481 40.8332 28.4382 40.8332 28.9199C40.8332 29.4004 40.4353 29.7893 39.9453 29.7893H38.7063V33.9422C38.7063 36.4568 36.6215 38.5 34.0595 38.5H32.201C31.7098 38.5 31.312 38.1099 31.312 37.6283C31.312 37.1478 31.7098 36.7576 32.201 36.7576H34.0595C35.6427 36.7576 36.9307 35.4958 36.9307 33.9422V29.7893H33.8705V30.946C33.8822 32.3932 32.698 33.5761 31.2222 33.5898H24.7775C23.3028 33.5761 22.1187 32.3932 22.1303 30.946V29.7893H19.0702V33.9468C19.0702 35.4946 20.3547 36.7542 21.9332 36.7565L23.8325 36.7576C24.3225 36.7576 24.7203 37.1478 24.7203 37.6283C24.7192 38.1099 24.3225 38.5 23.8313 38.5L21.9308 38.4989C19.3747 38.4966 17.2933 36.4545 17.2933 33.9468V29.7893H16.0555C15.5655 29.7893 15.1665 29.4004 15.1665 28.9199C15.1665 28.4382 15.5655 28.0481 16.0555 28.0481Z" fill="#EB0A1E"/>
</svg>
