<svg width="56" height="56" viewBox="0 0 56 56" fill="none" xmlns="http://www.w3.org/2000/svg">
<rect width="56" height="56" rx="20.8" fill="#F4F5FB"/>
<path fill-rule="evenodd" clip-rule="evenodd" d="M33.8458 31.0348C34.3288 31.0348 34.7208 30.6428 34.7208 30.1598V27.9991C34.7208 27.5161 34.3288 27.1241 33.8458 27.1241H27.2051C26.8271 25.8793 25.6814 24.9646 24.3141 24.9646C22.6411 24.9646 21.2796 26.3261 21.2796 27.9991C21.2796 29.6733 22.6411 31.0348 24.3141 31.0348C25.6814 31.0348 26.8271 30.1201 27.2051 28.8741H29.6691V30.1598C29.6691 30.6428 30.0611 31.0348 30.5441 31.0348C31.0271 31.0348 31.4191 30.6428 31.4191 30.1598V28.8741H32.9708V30.1598C32.9708 30.6428 33.3628 31.0348 33.8458 31.0348ZM22.9433 16.3324H33.0572C37.0098 16.3324 39.6663 19.1067 39.6663 23.2356V32.7637C39.6663 36.8926 37.0098 39.6657 33.056 39.6657H22.9433C18.9895 39.6657 16.333 36.8926 16.333 32.7637V23.2356C16.333 19.1067 18.9895 16.3324 22.9433 16.3324ZM23.0287 28.0001C23.0287 27.2908 23.6062 26.7144 24.3144 26.7144C25.0225 26.7144 25.6 27.2908 25.6 28.0001C25.6 28.7083 25.0225 29.2846 24.3144 29.2846C23.6062 29.2846 23.0287 28.7083 23.0287 28.0001Z" fill="#EB0A1E"/>
</svg>
