<svg width="60" height="60" viewBox="0 0 46 46" fill="none" xmlns="http://www.w3.org/2000/svg">
<path d="M23 0C10.35 0 0 10.35 0 23C0 35.65 10.35 46 23 46C35.65 46 46 35.65 46 23C46 10.35 35.65 0 23 0ZM34.9336 30.9086C35.0117 30.9867 35.0117 31.1133 34.9336 31.1914L31.1914 34.9336C31.1133 35.0117 30.9867 35.0117 30.9086 34.9336L23.1414 27.1664C23.0633 27.0883 22.9367 27.0883 22.8586 27.1664L15.0914 34.9336C15.0133 35.0117 14.8867 35.0117 14.8086 34.9336L11.0664 31.1914C10.9883 31.1133 10.9883 30.9867 11.0664 30.9086L18.8336 23.1414C18.9117 23.0633 18.9117 22.9367 18.8336 22.8586L11.0664 15.0914C10.9883 15.0133 10.9883 14.8867 11.0664 14.8086L14.8086 11.0664C14.8867 10.9883 15.0133 10.9883 15.0914 11.0664L22.8586 18.8336C22.9367 18.9117 23.0633 18.9117 23.1414 18.8336L30.9086 11.0664C30.9867 10.9883 31.1133 10.9883 31.1914 11.0664L34.9336 14.8086C35.0117 14.8867 35.0117 15.0133 34.9336 15.0914L27.1664 22.8586C27.0883 22.9367 27.0883 23.0633 27.1664 23.1414L34.9336 30.9086Z" fill="#EB0A1E"/>
</svg>
