<svg width="60" height="60" viewBox="0 0 47 47" fill="none" xmlns="http://www.w3.org/2000/svg">
<path d="M23.2227 0.222656C18.6737 0.222656 14.2269 1.57158 10.4446 4.09885C6.66222 6.62613 3.71425 10.2182 1.97344 14.4209C0.232622 18.6236 -0.222855 23.2482 0.664605 27.7097C1.55206 32.1713 3.7426 36.2695 6.95921 39.4861C10.1758 42.7027 14.274 44.8932 18.7356 45.7807C23.1971 46.6682 27.8217 46.2127 32.0244 44.4719C36.2271 42.7311 39.8192 39.7831 42.3465 36.0008C44.8737 32.2184 46.2227 27.7716 46.2227 23.2227C46.2227 17.1227 43.7994 11.2725 39.4861 6.9592C35.1728 2.64586 29.3226 0.222656 23.2227 0.222656ZM19.3893 10.0935C19.3893 9.33533 19.6142 8.59419 20.0354 7.9638C20.4566 7.33341 21.0553 6.84209 21.7557 6.55195C22.4562 6.26182 23.2269 6.1859 23.9705 6.33381C24.7141 6.48172 25.3971 6.84681 25.9332 7.38291C26.4693 7.91901 26.8344 8.60205 26.9823 9.34564C27.1302 10.0892 27.0543 10.86 26.7642 11.5604C26.4741 12.2609 25.9827 12.8596 25.3524 13.2808C24.722 13.702 23.9808 13.9268 23.2227 13.9268C22.7034 13.9528 22.1842 13.8729 21.6968 13.6919C21.2093 13.511 20.7638 13.2327 20.3873 12.8741C20.0108 12.5156 19.7112 12.0841 19.5067 11.6061C19.3021 11.1281 19.197 10.6134 19.1977 10.0935H19.3893ZM32.806 34.7227C32.806 35.231 32.6041 35.7185 32.2446 36.0779C31.8852 36.4374 31.3977 36.6393 30.8893 36.6393H17.4727C16.9643 36.6393 16.4768 36.4374 16.1174 36.0779C15.7579 35.7185 15.556 35.231 15.556 34.7227C15.556 34.2143 15.7579 33.7268 16.1174 33.3674C16.4768 33.0079 16.9643 32.806 17.4727 32.806H21.306V21.306H19.3893C18.881 21.306 18.3935 21.1041 18.034 20.7446C17.6746 20.3852 17.4727 19.8977 17.4727 19.3893C17.4727 18.881 17.6746 18.3935 18.034 18.034C18.3935 17.6746 18.881 17.4727 19.3893 17.4727H27.056V32.806H30.8893C31.3977 32.806 31.8852 33.0079 32.2446 33.3674C32.6041 33.7268 32.806 34.2143 32.806 34.7227Z" fill="#3F2BC8"/>
</svg>
