<svg width="60" height="60" viewBox="0 0 46 46" fill="none" xmlns="http://www.w3.org/2000/svg">
<path d="M26.8333 37.375V31.625C26.8333 31.3455 26.7435 31.1159 26.5638 30.9362C26.3841 30.7565 26.1545 30.6667 25.875 30.6667H20.125C19.8455 30.6667 19.6159 30.7565 19.4362 30.9362C19.2565 31.1159 19.1667 31.3455 19.1667 31.625V37.375C19.1667 37.6545 19.2565 37.8841 19.4362 38.0638C19.6159 38.2435 19.8455 38.3333 20.125 38.3333H25.875C26.1545 38.3333 26.3841 38.2435 26.5638 38.0638C26.7435 37.8841 26.8333 37.6545 26.8333 37.375ZM34.5 17.25C34.5 15.4931 33.946 13.8659 32.8379 12.3685C31.7298 10.8711 30.3472 9.71311 28.6901 8.89453C27.033 8.07595 25.3359 7.66667 23.599 7.66667C18.7474 7.66667 15.0438 9.79297 12.4883 14.0456C12.1888 14.5247 12.2687 14.944 12.7279 15.3034L16.681 18.2982C16.8207 18.418 17.0104 18.4779 17.25 18.4779C17.5694 18.4779 17.819 18.3581 17.9987 18.1185C19.0569 16.7609 19.9154 15.8424 20.5742 15.3633C21.253 14.8841 22.1115 14.6445 23.1497 14.6445C24.1081 14.6445 24.9616 14.9041 25.7103 15.4232C26.459 15.9423 26.8333 16.5312 26.8333 17.1901C26.8333 17.9488 26.6337 18.5577 26.2344 19.0169C25.8351 19.4761 25.1562 19.9253 24.1979 20.3646C22.9401 20.9236 21.7871 21.7871 20.7389 22.9551C19.6908 24.123 19.1667 25.3759 19.1667 26.7135V27.7917C19.1667 28.0712 19.2565 28.3008 19.4362 28.4805C19.6159 28.6602 19.8455 28.75 20.125 28.75H25.875C26.1545 28.75 26.3841 28.6602 26.5638 28.4805C26.7435 28.3008 26.8333 28.0712 26.8333 27.7917C26.8333 27.4123 27.048 26.9182 27.4772 26.3092C27.9065 25.7003 28.4505 25.2062 29.1094 24.8268C29.7483 24.4674 30.2374 24.1829 30.5768 23.9733C30.9162 23.7637 31.3754 23.4143 31.9544 22.9251C32.5334 22.436 32.9776 21.9568 33.2871 21.4876C33.5966 21.0184 33.8761 20.4145 34.1256 19.6758C34.3752 18.9371 34.5 18.1285 34.5 17.25ZM46 23C46 27.1727 44.9718 31.021 42.9154 34.5449C40.8589 38.0688 38.0688 40.8589 34.5449 42.9154C31.021 44.9718 27.1727 46 23 46C18.8273 46 14.9789 44.9718 11.4551 42.9154C7.93121 40.8589 5.14106 38.0688 3.08464 34.5449C1.02821 31.021 0 27.1727 0 23C0 18.8273 1.02821 14.9789 3.08464 11.4551C5.14106 7.93121 7.93121 5.14106 11.4551 3.08464C14.9789 1.02821 18.8273 0 23 0C27.1727 0 31.021 1.02821 34.5449 3.08464C38.0688 5.14106 40.8589 7.93121 42.9154 11.4551C44.9718 14.9789 46 18.8273 46 23Z" fill="#0C9250"/>
</svg>
