<svg width="60" height="60" viewBox="0 0 46 46" fill="none" xmlns="http://www.w3.org/2000/svg">
<path d="M23 46C16.9 46 11.0499 43.5768 6.73654 39.2635C2.42321 34.9501 0 29.1 0 23C0 16.9 2.42321 11.0499 6.73654 6.73654C11.0499 2.42321 16.9 0 23 0C29.1 0 34.9501 2.42321 39.2635 6.73654C43.5768 11.0499 46 16.9 46 23C46 29.1 43.5768 34.9501 39.2635 39.2635C34.9501 43.5768 29.1 46 23 46ZM17.0256 33.1256C17.7909 33.8909 19.0262 33.9086 19.8131 33.1654L38.3519 15.6565C38.7616 15.2696 38.7708 14.6208 38.3724 14.2224L36.3331 12.1831C35.9521 11.8021 35.3377 11.7915 34.9437 12.1592L19.1063 26.9408C18.7123 27.3085 18.0979 27.2979 17.7169 26.9169L11.0571 20.2571C10.6666 19.8666 10.0334 19.8666 9.64289 20.2571L7.60711 22.2929C7.21658 22.6834 7.21658 23.3166 7.60711 23.7071L17.0256 33.1256Z" fill="#13BD1A"/>
</svg>
