<?xml version="1.0" encoding="UTF-8"?>
<!DOCTYPE svg PUBLIC "-//W3C//DTD SVG 1.1//EN" "http://www.w3.org/Graphics/SVG/1.1/DTD/svg11.dtd">
<svg xmlns="http://www.w3.org/2000/svg" version="1.1" width="24px" height="24px" style="shape-rendering:geometricPrecision; text-rendering:geometricPrecision; image-rendering:optimizeQuality; fill-rule:evenodd; clip-rule:evenodd" xmlns:xlink="http://www.w3.org/1999/xlink">
<g><path style="opacity:0.754" fill="#ea091d" d="M 23.5,10.5 C 23.5,11.1667 23.5,11.8333 23.5,12.5C 15.5,23.1667 7.5,23.1667 -0.5,12.5C -0.5,11.8333 -0.5,11.1667 -0.5,10.5C 7.5,-0.166667 15.5,-0.166667 23.5,10.5 Z M 8.5,5.5 C 14.1016,4.45998 18.1016,6.45998 20.5,11.5C 16.3571,17.8801 11.0238,19.0467 4.5,15C 2.21303,12.9517 2.04636,10.7851 4,8.5C 5.65161,7.60064 7.15161,6.60064 8.5,5.5 Z M 9.5,9.5 C 10.8333,9.5 12.1667,9.5 13.5,9.5C 13.5,10.8333 13.5,12.1667 13.5,13.5C 12.1667,13.5 10.8333,13.5 9.5,13.5C 9.5,12.1667 9.5,10.8333 9.5,9.5 Z"/></g>
<g><path style="opacity:0.733" fill="#ea0a1c" d="M 9.5,6.5 C 14.6646,6.16192 16.8313,8.49525 16,13.5C 13,17.5 10,17.5 7,13.5C 6.16199,10.5193 6.99533,8.18593 9.5,6.5 Z M 9.5,9.5 C 9.5,10.8333 9.5,12.1667 9.5,13.5C 10.8333,13.5 12.1667,13.5 13.5,13.5C 13.5,12.1667 13.5,10.8333 13.5,9.5C 12.1667,9.5 10.8333,9.5 9.5,9.5 Z"/></g>
</svg>
