<?xml version="1.0" encoding="UTF-8"?>
<!DOCTYPE svg PUBLIC "-//W3C//DTD SVG 1.1//EN" "http://www.w3.org/Graphics/SVG/1.1/DTD/svg11.dtd">
<svg xmlns="http://www.w3.org/2000/svg" version="1.1" width="24px" height="24px" style="shape-rendering:geometricPrecision; text-rendering:geometricPrecision; image-rendering:optimizeQuality; fill-rule:evenodd; clip-rule:evenodd" xmlns:xlink="http://www.w3.org/1999/xlink">
<g><path style="opacity:0.875" fill="#2d1df8" d="M 12.5,1.5 C 16.2259,1.89939 19.2259,3.56606 21.5,6.5C 18.8333,8.16667 16.1667,9.83333 13.5,11.5C 12.6143,10.675 12.281,9.67504 12.5,8.5C 8.69936,9.20238 5.03269,10.0357 1.5,11C 3.89634,7.29664 7.22968,4.79664 11.5,3.5C 12.2975,3.04311 12.6309,2.37644 12.5,1.5 Z"/></g>
<g><path style="opacity:0.905" fill="#2d1df8" d="M 8.5,11.5 C 10.0481,11.8212 10.7148,12.8212 10.5,14.5C 14.3006,13.7976 17.9673,12.9643 21.5,12C 20.7433,13.5122 19.7433,14.8455 18.5,16C 15.23,17.6465 12.0633,19.4798 9,21.5C 6.07915,20.4033 3.57915,18.7367 1.5,16.5C 4.07654,15.0569 6.40988,13.3902 8.5,11.5 Z"/></g>
</svg>
