<?xml version="1.0" encoding="UTF-8"?>
<!DOCTYPE svg PUBLIC "-//W3C//DTD SVG 1.1//EN" "http://www.w3.org/Graphics/SVG/1.1/DTD/svg11.dtd">
<svg xmlns="http://www.w3.org/2000/svg" version="1.1" width="24px" height="25px" style="shape-rendering:geometricPrecision; text-rendering:geometricPrecision; image-rendering:optimizeQuality; fill-rule:evenodd; clip-rule:evenodd" xmlns:xlink="http://www.w3.org/1999/xlink">
<g><path style="opacity:0.729" fill="#ea091d" d="M 4.5,0.5 C 7.8499,0.334989 11.1832,0.501655 14.5,1C 17,3.5 19.5,6 22,8.5C 22.7975,10.2588 22.6309,11.9255 21.5,13.5C 20.6143,12.675 20.281,11.675 20.5,10.5C 14.1667,11.5 11.5,8.83333 12.5,2.5C 8.713,1.81442 5.54634,2.81442 3,5.5C 2.33333,9.5 2.33333,13.5 3,17.5C 4.66693,19.6278 6.83359,20.9611 9.5,21.5C 5.71314,23.1768 2.87981,22.1768 1,18.5C 0.333333,13.8333 0.333333,9.16667 1,4.5C 1.68972,2.64977 2.85639,1.31643 4.5,0.5 Z M 14.5,4.5 C 15.9616,5.45773 17.2949,6.62439 18.5,8C 15.5096,8.84688 14.1762,7.68022 14.5,4.5 Z"/></g>
<g><path style="opacity:0.727" fill="#ea0a1d" d="M 19.5,24.5 C 17.5,24.5 15.5,24.5 13.5,24.5C 10.794,21.7719 11.1274,19.2719 14.5,17C 12.6667,12.1667 14.1667,10.6667 19,12.5C 19.6514,14.235 19.4847,15.9017 18.5,17.5C 22.0333,19.4202 22.3666,21.7535 19.5,24.5 Z M 15.5,19.5 C 16.7562,19.4614 17.7562,19.9614 18.5,21C 16.8333,23 15.1667,23 13.5,21C 14.4158,20.7216 15.0825,20.2216 15.5,19.5 Z"/></g>
</svg>
