<?xml version="1.0" encoding="UTF-8"?>
<!DOCTYPE svg PUBLIC "-//W3C//DTD SVG 1.1//EN" "http://www.w3.org/Graphics/SVG/1.1/DTD/svg11.dtd">
<svg xmlns="http://www.w3.org/2000/svg" version="1.1" width="24px" height="24px" style="shape-rendering:geometricPrecision; text-rendering:geometricPrecision; image-rendering:optimizeQuality; fill-rule:evenodd; clip-rule:evenodd" xmlns:xlink="http://www.w3.org/1999/xlink">
<g><path style="opacity:0.868" fill="#2d1df8" d="M 23.5,16.5 C 23.5,17.1667 23.5,17.8333 23.5,18.5C 21.5,19.8333 19.8333,21.5 18.5,23.5C 18.1667,23.5 17.8333,23.5 17.5,23.5C 16.6261,22.4749 15.4595,21.8082 14,21.5C 8.99367,23.2784 4.66034,22.2784 1,18.5C 0.175095,16.2992 0.675095,14.4659 2.5,13C 5.5,12.6667 8.5,12.3333 11.5,12C 5.54194,12.0437 3.37527,9.21037 5,3.5C 9.93921,-0.888886 13.4392,0.111114 15.5,6.5C 15.2395,8.18708 14.5728,9.68708 13.5,11C 15.1667,11.3333 16.8333,11.6667 18.5,12C 20.0375,13.7073 21.7041,15.2073 23.5,16.5 Z M 9.5,2.5 C 14.6331,5.03802 14.6331,7.37135 9.5,9.5C 7.5,9.5 6.5,8.5 6.5,6.5C 6.7867,4.55668 7.7867,3.22335 9.5,2.5 Z M 3.5,14.5 C 6.16667,14.5 8.83333,14.5 11.5,14.5C 11.2865,16.1439 11.6198,17.6439 12.5,19C 8.35001,20.7951 5.01668,19.7951 2.5,16C 3.05596,15.6174 3.38929,15.1174 3.5,14.5 Z"/></g>
</svg>
