<svg width="24" height="24" viewBox="0 0 24 24" fill="none" xmlns="http://www.w3.org/2000/svg">
<path d="M14 21C13.8 21 13.625 20.925 13.475 20.775C13.325 20.625 13.25 20.45 13.25 20.25C13.25 20.0333 13.325 19.8542 13.475 19.7125C13.625 19.5708 13.8 19.5 14 19.5C14.9833 19.5 15.8125 19.3 16.4875 18.9C17.1625 18.5 17.5 18.0333 17.5 17.5C17.5 17.1167 17.2541 16.7417 16.7625 16.375C16.2708 16.0083 15.6083 15.725 14.775 15.525L15.95 14.35C17 14.6667 17.7708 15.1042 18.2625 15.6625C18.7541 16.2208 19 16.8333 19 17.5C19 18.6167 18.4916 19.4792 17.475 20.0875C16.4583 20.6958 15.3 21 14 21ZM5.99997 13.65C4.9333 13.4167 4.16664 13.05 3.69997 12.55C3.2333 12.05 2.99997 11.5333 2.99997 11C2.99997 10.4167 3.21664 9.89167 3.64997 9.425C4.0833 8.95833 5.0833 8.44167 6.64997 7.875C7.74997 7.475 8.4583 7.15 8.77497 6.9C9.09164 6.65 9.24997 6.35833 9.24997 6.025C9.24997 5.60833 9.06664 5.25 8.69997 4.95C8.3333 4.65 7.76664 4.5 6.99997 4.5C6.54997 4.5 6.16664 4.55833 5.84997 4.675C5.5333 4.79167 5.24997 4.975 4.99997 5.225C4.86664 5.35833 4.6958 5.4375 4.48747 5.4625C4.27914 5.4875 4.09164 5.43333 3.92497 5.3C3.74164 5.16667 3.6458 5 3.63747 4.8C3.62914 4.6 3.69164 4.425 3.82497 4.275C4.1083 3.90833 4.5333 3.60417 5.09997 3.3625C5.66664 3.12083 6.29997 3 6.99997 3C8.1333 3 9.04164 3.27083 9.72497 3.8125C10.4083 4.35417 10.75 5.09167 10.75 6.025C10.75 6.70833 10.5125 7.2875 10.0375 7.7625C9.56247 8.2375 8.6333 8.73333 7.24997 9.25C6.1333 9.66667 5.3958 9.99583 5.03747 10.2375C4.67914 10.4792 4.49997 10.7333 4.49997 11C4.49997 11.2667 4.72497 11.5208 5.17497 11.7625C5.62497 12.0042 6.29997 12.2333 7.19997 12.45L5.99997 13.65ZM18.4 9.8L15.2 6.6L16.325 5.475C16.625 5.175 16.9583 5.025 17.325 5.025C17.6916 5.025 18.025 5.175 18.325 5.475L19.525 6.675C19.825 6.975 19.975 7.30833 19.975 7.675C19.975 8.04167 19.825 8.375 19.525 8.675L18.4 9.8ZM5.49997 19.5H6.54997L15.175 10.875L14.125 9.825L5.49997 18.45V19.5ZM4.37497 21C4.27497 21 4.18747 20.9625 4.11247 20.8875C4.03747 20.8125 3.99997 20.725 3.99997 20.625V17.95C3.99997 17.9167 4.0333 17.8333 4.09997 17.7L14.125 7.675L17.325 10.875L7.29997 20.9C7.26664 20.9333 7.1833 20.9667 7.04997 21H4.37497Z" fill="#EB0A1E"/>
</svg>
