<?xml version="1.0" encoding="UTF-8"?>
<!DOCTYPE svg PUBLIC "-//W3C//DTD SVG 1.1//EN" "http://www.w3.org/Graphics/SVG/1.1/DTD/svg11.dtd">
<svg xmlns="http://www.w3.org/2000/svg" version="1.1" width="24px" height="24px" style="shape-rendering:geometricPrecision; text-rendering:geometricPrecision; image-rendering:optimizeQuality; fill-rule:evenodd; clip-rule:evenodd" xmlns:xlink="http://www.w3.org/1999/xlink">
<g><path style="opacity:0.758" fill="#ea0a1d" d="M 6.5,13.5 C 2.65003,13.2993 1.65003,11.4659 3.5,8C 10.0005,5.0344 9.66712,3.86773 2.5,4.5C 3.3481,3.00886 4.68144,2.34219 6.5,2.5C 10.0732,2.42685 11.2399,4.09352 10,7.5C 8.41399,8.37596 6.91399,9.37596 5.5,10.5C 6.12723,11.4168 6.46056,12.4168 6.5,13.5 Z"/></g>
<g><path style="opacity:0.747" fill="#eb091d" d="M 15.5,12.5 C 14.1667,13.1667 13.1667,14.1667 12.5,15.5C 10.7041,16.7927 9.03748,18.2927 7.5,20C 6.20677,20.49 4.87344,20.6567 3.5,20.5C 3.14963,17.5466 4.14963,15.2133 6.5,13.5C 9.84468,10.3222 13.3447,7.32223 17,4.5C 18.5,4.66667 19.3333,5.5 19.5,7C 18.3498,8.98096 17.0165,10.8143 15.5,12.5 Z"/></g>
<g><path style="opacity:0.373" fill="#ecfaf3" d="M 15.5,12.5 C 18.5133,12.1072 21.1799,12.7739 23.5,14.5C 23.5,16.8333 23.5,19.1667 23.5,21.5C 22.5,21.8333 21.8333,22.5 21.5,23.5C 19.1667,23.5 16.8333,23.5 14.5,23.5C 12.7739,21.1799 12.1072,18.5133 12.5,15.5C 13.1667,14.1667 14.1667,13.1667 15.5,12.5 Z"/></g>
<g><path style="opacity:1" fill="#34d481" d="M 15.5,13.5 C 22.4863,13.331 24.153,16.1643 20.5,22C 13.4159,22.475 11.7492,19.6417 15.5,13.5 Z"/></g>
</svg>
