<?xml version="1.0" encoding="UTF-8"?>
<!DOCTYPE svg PUBLIC "-//W3C//DTD SVG 1.1//EN" "http://www.w3.org/Graphics/SVG/1.1/DTD/svg11.dtd">
<svg xmlns="http://www.w3.org/2000/svg" version="1.1" width="24px" height="24px" style="shape-rendering:geometricPrecision; text-rendering:geometricPrecision; image-rendering:optimizeQuality; fill-rule:evenodd; clip-rule:evenodd" xmlns:xlink="http://www.w3.org/1999/xlink">
<g><path style="opacity:0.723" fill="#ea0a1d" d="M 6.5,3.5 C 5.62356,3.36912 4.95689,3.70245 4.5,4.5C 3.49811,6.51006 2.49811,8.51006 1.5,10.5C 0.0136623,6.12753 1.347,2.79419 5.5,0.5C 6.38568,1.32496 6.71901,2.32496 6.5,3.5 Z"/></g>
<g><path style="opacity:0.726" fill="#ea091e" d="M 16.5,3.5 C 16.281,2.32496 16.6143,1.32496 17.5,0.5C 21.653,2.79419 22.9863,6.12753 21.5,10.5C 20.5019,8.51006 19.5019,6.51006 18.5,4.5C 18.0431,3.70245 17.3764,3.36912 16.5,3.5 Z"/></g>
<g><path style="opacity:0.772" fill="#ea091d" d="M 16.5,3.5 C 17.9244,8.10076 19.2578,12.7674 20.5,17.5C 20.3333,18.1667 20.1667,18.8333 20,19.5C 17.5368,20.0322 15.7035,21.3655 14.5,23.5C 12.8333,23.5 11.1667,23.5 9.5,23.5C 7.9096,21.7662 5.9096,20.5995 3.5,20C 2.94149,19.2753 2.60816,18.4419 2.5,17.5C 3.74224,12.7674 5.07558,8.10076 6.5,3.5C 8.15611,2.85353 9.82277,2.18687 11.5,1.5C 13.1772,2.18687 14.8439,2.85353 16.5,3.5 Z M 9.5,4.5 C 12.3245,4.08073 14.4912,5.08073 16,7.5C 16.3333,10.1667 16.6667,12.8333 17,15.5C 18.487,16.2529 18.6537,17.0862 17.5,18C 12.9465,20.1068 8.61318,19.7735 4.5,17C 5,16.5 5.5,16 6,15.5C 5.79919,11.2712 6.96586,7.60449 9.5,4.5 Z"/></g>
</svg>
