<?xml version="1.0" encoding="UTF-8"?>
<!DOCTYPE svg PUBLIC "-//W3C//DTD SVG 1.1//EN" "http://www.w3.org/Graphics/SVG/1.1/DTD/svg11.dtd">
<svg xmlns="http://www.w3.org/2000/svg" version="1.1" width="24px" height="24px" style="shape-rendering:geometricPrecision; text-rendering:geometricPrecision; image-rendering:optimizeQuality; fill-rule:evenodd; clip-rule:evenodd" xmlns:xlink="http://www.w3.org/1999/xlink">
<g><path style="opacity:0.787" fill="#2d1df8" d="M 14.5,17.5 C 15.1667,17.5 15.5,17.1667 15.5,16.5C 16.1667,16.5 16.5,16.1667 16.5,15.5C 17.1667,15.5 17.5,15.1667 17.5,14.5C 18.1667,14.5 18.5,14.1667 18.5,13.5C 21.1667,12.1667 21.1667,10.8333 18.5,9.5C 18.5,8.83333 18.1667,8.5 17.5,8.5C 17.5,7.83333 17.1667,7.5 16.5,7.5C 16.5,6.83333 16.1667,6.5 15.5,6.5C 15.5,5.83333 15.1667,5.5 14.5,5.5C 13.105,4.35233 13.2716,3.35233 15,2.5C 25,8.5 25,14.5 15,20.5C 13.2716,19.6477 13.105,18.6477 14.5,17.5 Z"/></g>
<g><path style="opacity:0.931" fill="#2d1df8" d="M 14.5,5.5 C 15.1667,5.5 15.5,5.83333 15.5,6.5C 16.1667,6.5 16.5,6.83333 16.5,7.5C 17.1667,7.5 17.5,7.83333 17.5,8.5C 18.1667,8.5 18.5,8.83333 18.5,9.5C 18.5,10.8333 18.5,12.1667 18.5,13.5C 17.8333,13.5 17.5,13.8333 17.5,14.5C 16.8333,14.5 16.5,14.8333 16.5,15.5C 15.8333,15.5 15.5,15.8333 15.5,16.5C 14.8333,16.5 14.5,16.8333 14.5,17.5C 12.9826,17.5106 11.8159,18.1772 11,19.5C 10.51,18.2068 10.3433,16.8734 10.5,15.5C 7.41209,15.3773 4.74542,16.3773 2.5,18.5C 1.19862,12.115 3.86528,8.44831 10.5,7.5C 10.3433,6.12656 10.51,4.79323 11,3.5C 11.8159,4.82277 12.9826,5.48944 14.5,5.5 Z"/></g>
</svg>
