<?xml version="1.0" standalone="no"?>
<!DOCTYPE svg PUBLIC "-//W3C//DTD SVG 20010904//EN"
 "http://www.w3.org/TR/2001/REC-SVG-20010904/DTD/svg10.dtd">
<svg version="1.0" xmlns="http://www.w3.org/2000/svg"
 width="400.000000pt" height="400.000000pt" viewBox="0 0 400.000000 400.000000"
 preserveAspectRatio="xMidYMid meet">

<g transform="translate(0.000000,400.000000) scale(0.100000,-0.100000)"
fill="#000000" stroke="none">
<path d="M1908 3443 c34 -2 88 -2 120 0 31 2 3 3 -63 3 -66 0 -92 -1 -57 -3z"/>
<path d="M1733 3433 c15 -2 39 -2 55 0 15 2 2 4 -28 4 -30 0 -43 -2 -27 -4z"/>
<path d="M2143 3433 c15 -2 39 -2 55 0 15 2 2 4 -28 4 -30 0 -43 -2 -27 -4z"/>
<path d="M1638 3423 c12 -2 30 -2 40 0 9 3 -1 5 -23 4 -22 0 -30 -2 -17 -4z"/>
<path d="M2258 3423 c12 -2 30 -2 40 0 9 3 -1 5 -23 4 -22 0 -30 -2 -17 -4z"/>
<path d="M1568 3413 c6 -2 18 -2 25 0 6 3 1 5 -13 5 -14 0 -19 -2 -12 -5z"/>
<path d="M2338 3413 c6 -2 18 -2 25 0 6 3 1 5 -13 5 -14 0 -19 -2 -12 -5z"/>
<path d="M1508 3403 c6 -2 18 -2 25 0 6 3 1 5 -13 5 -14 0 -19 -2 -12 -5z"/>
<path d="M2398 3403 c6 -2 18 -2 25 0 6 3 1 5 -13 5 -14 0 -19 -2 -12 -5z"/>
<path d="M1458 3393 c7 -3 16 -2 19 1 4 3 -2 6 -13 5 -11 0 -14 -3 -6 -6z"/>
<path d="M2458 3393 c7 -3 16 -2 19 1 4 3 -2 6 -13 5 -11 0 -14 -3 -6 -6z"/>
<path d="M1408 3383 c6 -2 18 -2 25 0 6 3 1 5 -13 5 -14 0 -19 -2 -12 -5z"/>
<path d="M2498 3383 c6 -2 18 -2 25 0 6 3 1 5 -13 5 -14 0 -19 -2 -12 -5z"/>
<path d="M1368 3373 c7 -3 16 -2 19 1 4 3 -2 6 -13 5 -11 0 -14 -3 -6 -6z"/>
<path d="M2548 3373 c7 -3 16 -2 19 1 4 3 -2 6 -13 5 -11 0 -14 -3 -6 -6z"/>
<path d="M1328 3363 c7 -3 16 -2 19 1 4 3 -2 6 -13 5 -11 0 -14 -3 -6 -6z"/>
<path d="M2588 3363 c7 -3 16 -2 19 1 4 3 -2 6 -13 5 -11 0 -14 -3 -6 -6z"/>
<path d="M1258 3343 c7 -3 16 -2 19 1 4 3 -2 6 -13 5 -11 0 -14 -3 -6 -6z"/>
<path d="M2658 3343 c7 -3 16 -2 19 1 4 3 -2 6 -13 5 -11 0 -14 -3 -6 -6z"/>
<path d="M1150 3310 c-8 -5 -10 -10 -5 -10 6 0 17 5 25 10 8 5 11 10 5 10 -5
0 -17 -5 -25 -10z"/>
<path d="M2760 3310 c8 -5 20 -10 25 -10 6 0 3 5 -5 10 -8 5 -19 10 -25 10 -5
0 -3 -5 5 -10z"/>
<path d="M1742 3299 c-290 -26 -561 -109 -646 -198 l-30 -31 48 0 48 0 -16
-25 c-9 -13 -16 -32 -15 -42 0 -13 3 -11 10 7 25 62 124 126 264 169 81 26
279 61 338 61 l40 0 -24 -27 c-13 -16 -1 -7 26 18 28 26 64 54 80 62 l30 16
-30 -1 c-16 0 -72 -4 -123 -9z"/>
<path d="M2065 3294 c17 -9 52 -37 80 -63 27 -25 39 -34 26 -18 l-24 27 40 0
c59 0 257 -35 338 -61 140 -43 239 -107 264 -169 7 -18 10 -20 10 -7 1 10 -6
29 -15 42 l-16 25 48 0 48 0 -29 29 c-96 102 -372 179 -725 206 -73 5 -74 5
-45 -11z"/>
<path d="M948 3224 c-27 -13 -48 -27 -48 -29 0 -5 99 42 109 51 13 11 -20 0
-61 -22z"/>
<path d="M2921 3246 c10 -9 109 -56 109 -51 0 5 -95 55 -106 55 -4 0 -5 -2 -3
-4z"/>
<path d="M844 3164 c-18 -14 -18 -15 4 -4 12 6 22 13 22 15 0 8 -5 6 -26 -11z"/>
<path d="M2190 3176 c0 -2 8 -10 18 -17 15 -13 16 -12 3 4 -13 16 -21 21 -21
13z"/>
<path d="M739 3093 c-13 -16 -12 -17 4 -4 9 7 17 15 17 17 0 8 -8 3 -21 -13z"/>
<path d="M3170 3106 c0 -2 8 -10 18 -17 15 -13 16 -12 3 4 -13 16 -21 21 -21
13z"/>
<path d="M1912 3083 c-43 -21 -88 -79 -118 -152 -31 -78 -30 -82 6 -41 l31 35
-15 -30 c-16 -34 -46 -144 -46 -169 0 -13 10 -16 53 -14 l52 2 -49 3 -48 4 7
36 c13 69 57 172 92 212 19 23 31 41 27 41 -4 0 3 12 17 28 46 50 53 62 38 62
-8 0 -29 -8 -47 -17z"/>
<path d="M699 3063 c-13 -16 -12 -17 4 -4 9 7 17 15 17 17 0 8 -8 3 -21 -13z"/>
<path d="M3225 3060 c10 -11 20 -20 23 -20 3 0 -3 9 -13 20 -10 11 -20 20 -23
20 -3 0 3 -9 13 -20z"/>
<path d="M2260 3065 c0 -5 5 -17 10 -25 5 -8 10 -10 10 -5 0 6 -5 17 -10 25
-5 8 -10 11 -10 5z"/>
<path d="M600 2975 c-41 -41 -72 -75 -69 -75 2 0 38 34 79 75 41 41 72 75 69
75 -2 0 -38 -34 -79 -75z"/>
<path d="M1646 3035 c-9 -26 -7 -32 5 -12 6 10 9 21 6 23 -2 3 -7 -2 -11 -11z"/>
<path d="M3325 2970 c38 -38 72 -70 74 -70 3 0 -26 32 -64 70 -38 39 -72 70
-74 70 -3 0 26 -31 64 -70z"/>
<path d="M1920 3019 c-11 -7 -5 -8 21 -3 39 6 67 -4 109 -40 l25 -21 -20 24
c-38 45 -101 64 -135 40z"/>
<path d="M764 2907 c-60 -62 -112 -126 -131 -164 -18 -33 -33 -64 -33 -67 0
-3 18 -6 40 -6 22 0 40 -3 40 -7 -1 -5 -9 -33 -20 -63 -11 -30 -19 -66 -19
-80 0 -14 7 1 15 32 23 97 79 191 168 286 l50 53 14 -23 c10 -17 12 -18 6 -3
-4 11 -9 48 -12 83 -2 34 -8 62 -12 62 -4 0 -52 -46 -106 -103z"/>
<path d="M3048 2947 c-3 -34 -8 -71 -12 -82 -6 -15 -4 -14 6 3 l14 23 50 -53
c90 -95 144 -189 170 -293 7 -29 13 -39 13 -25 0 14 -8 50 -19 80 -11 30 -19
58 -20 63 0 4 18 7 40 7 22 0 40 3 40 6 0 29 -81 145 -154 222 -121 126 -123
127 -128 49z"/>
<path d="M1130 2958 c0 -20 54 -84 84 -99 11 -6 4 4 -18 22 -21 18 -44 46 -52
63 -8 18 -13 24 -14 14z"/>
<path d="M2790 2955 c0 -8 -14 -31 -31 -52 l-32 -38 37 37 c31 32 47 68 31 68
-3 0 -5 -7 -5 -15z"/>
<path d="M2080 2930 c6 -11 13 -20 16 -20 2 0 0 9 -6 20 -6 11 -13 20 -16 20
-2 0 0 -9 6 -20z"/>
<path d="M2100 2895 c0 -5 5 -17 10 -25 5 -8 10 -10 10 -5 0 6 -5 17 -10 25
-5 8 -10 11 -10 5z"/>
<path d="M509 2873 c-13 -16 -12 -17 4 -4 16 13 21 21 13 21 -2 0 -10 -8 -17
-17z"/>
<path d="M3400 2886 c0 -2 8 -10 18 -17 15 -13 16 -12 3 4 -13 16 -21 21 -21
13z"/>
<path d="M1591 2864 c0 -11 3 -14 6 -6 3 7 2 16 -1 19 -3 4 -6 -2 -5 -13z"/>
<path d="M2332 2860 c0 -14 2 -19 5 -12 2 6 2 18 0 25 -3 6 -5 1 -5 -13z"/>
<path d="M1254 2836 c11 -9 24 -16 30 -16 12 0 7 5 -24 19 -24 11 -24 11 -6
-3z"/>
<path d="M2660 2835 c-14 -8 -20 -14 -14 -15 5 0 19 7 30 15 24 18 16 19 -16
0z"/>
<path d="M917 2811 c40 -74 178 -172 323 -229 41 -16 125 -42 187 -58 l112
-29 4 -85 3 -85 2 95 c1 59 7 101 14 108 9 9 -8 12 -76 12 -71 0 -105 6 -179
30 -177 60 -324 153 -391 250 -15 22 -15 21 1 -9z"/>
<path d="M1582 2820 c0 -14 2 -19 5 -12 2 6 2 18 0 25 -3 6 -5 1 -5 -13z"/>
<path d="M2992 2797 c-61 -86 -198 -169 -371 -227 -72 -24 -106 -30 -177 -30
-68 0 -85 -3 -76 -12 7 -7 13 -48 14 -103 l2 -90 3 80 4 80 112 29 c136 35
241 75 328 126 77 45 157 115 182 159 26 44 16 38 -21 -12z"/>
<path d="M2341 2814 c0 -11 3 -14 6 -6 3 7 2 16 -1 19 -3 4 -6 -2 -5 -13z"/>
<path d="M1310 2810 c8 -5 20 -10 25 -10 6 0 3 5 -5 10 -8 5 -19 10 -25 10 -5
0 -3 -5 5 -10z"/>
<path d="M2600 2810 c-8 -5 -10 -10 -5 -10 6 0 17 5 25 10 8 5 11 10 5 10 -5
0 -17 -5 -25 -10z"/>
<path d="M1571 2773 c-1 -12 -9 -24 -18 -26 -17 -4 -17 -5 0 -6 19 -1 32 21
24 41 -3 7 -6 3 -6 -9z"/>
<path d="M2141 2774 c0 -11 3 -14 6 -6 3 7 2 16 -1 19 -3 4 -6 -2 -5 -13z"/>
<path d="M2351 2768 c-1 -23 3 -28 22 -27 15 1 17 3 5 6 -9 2 -19 14 -21 26
-4 18 -5 17 -6 -5z"/>
<path d="M1418 2773 c7 -3 16 -2 19 1 4 3 -2 6 -13 5 -11 0 -14 -3 -6 -6z"/>
<path d="M2498 2773 c7 -3 16 -2 19 1 4 3 -2 6 -13 5 -11 0 -14 -3 -6 -6z"/>
<path d="M430 2749 c-7 -11 -10 -23 -7 -25 2 -2 9 7 15 21 14 30 7 33 -8 4z"/>
<path d="M3491 2750 c14 -31 19 -36 19 -24 0 6 -7 19 -16 30 -14 18 -14 18 -3
-6z"/>
<path d="M1498 2753 c7 -3 16 -2 19 1 4 3 -2 6 -13 5 -11 0 -14 -3 -6 -6z"/>
<path d="M2418 2753 c7 -3 16 -2 19 1 4 3 -2 6 -13 5 -11 0 -14 -3 -6 -6z"/>
<path d="M2150 2731 c0 -6 -21 -12 -47 -14 l-48 -3 53 -2 c40 -2 52 1 52 13 0
8 -2 15 -5 15 -3 0 -5 -4 -5 -9z"/>
<path d="M371 2584 c0 -11 3 -14 6 -6 3 7 2 16 -1 19 -3 4 -6 -2 -5 -13z"/>
<path d="M3551 2574 c0 -11 3 -14 6 -6 3 7 2 16 -1 19 -3 4 -6 -2 -5 -13z"/>
<path d="M362 2515 c0 -16 2 -22 5 -12 2 9 2 23 0 30 -3 6 -5 -1 -5 -18z"/>
<path d="M1720 2477 c0 -35 4 -56 10 -52 10 6 18 -18 23 -80 3 -22 4 -4 3 40
l-1 80 131 -4 c72 -2 167 0 211 4 73 6 81 9 96 35 10 15 17 30 17 32 0 1 -55
0 -122 -3 -68 -3 -178 -3 -246 0 l-122 6 0 -58z"/>
<path d="M3562 2515 c0 -16 2 -22 5 -12 2 9 2 23 0 30 -3 6 -5 -1 -5 -18z"/>
<path d="M633 2435 c0 -33 2 -45 4 -27 2 18 2 45 0 60 -2 15 -4 0 -4 -33z"/>
<path d="M3293 2435 c0 -33 2 -45 4 -27 2 18 2 45 0 60 -2 15 -4 0 -4 -33z"/>
<path d="M2173 2385 c0 -27 2 -38 4 -22 2 15 2 37 0 50 -2 12 -4 0 -4 -28z"/>
<path d="M362 2380 c0 -19 2 -27 5 -17 2 9 2 25 0 35 -3 9 -5 1 -5 -18z"/>
<path d="M3562 2385 c0 -16 2 -22 5 -12 2 9 2 23 0 30 -3 6 -5 -1 -5 -18z"/>
<path d="M642 2340 c0 -14 2 -19 5 -12 2 6 2 18 0 25 -3 6 -5 1 -5 -13z"/>
<path d="M3281 2344 c0 -11 3 -14 6 -6 3 7 2 16 -1 19 -3 4 -6 -2 -5 -13z"/>
<path d="M371 2314 c0 -11 3 -14 6 -6 3 7 2 16 -1 19 -3 4 -6 -2 -5 -13z"/>
<path d="M3551 2314 c0 -11 3 -14 6 -6 3 7 2 16 -1 19 -3 4 -6 -2 -5 -13z"/>
<path d="M1551 2270 c-1 -54 26 -206 54 -305 31 -106 70 -190 120 -260 l35
-50 -42 -6 -43 -7 45 0 c25 0 48 -1 53 -2 4 -2 10 -3 15 -4 4 0 21 -10 37 -22
41 -29 90 -44 140 -44 50 0 99 15 140 44 17 12 33 22 38 22 4 1 10 2 15 4 4 1
23 2 42 3 l35 0 -32 4 c-33 4 -42 16 -22 29 21 12 80 115 110 190 34 84 79
272 78 319 -1 23 -3 19 -9 -16 -21 -126 -31 -159 -48 -159 -12 0 -26 -24 -47
-83 l-30 -82 -135 -5 c-74 -3 -196 -3 -270 0 l-135 5 -30 82 c-21 59 -35 83
-47 83 -19 0 -32 52 -53 205 -7 50 -13 74 -14 55z"/>
<path d="M2162 2275 c0 -16 2 -22 5 -12 2 9 2 23 0 30 -3 6 -5 -1 -5 -18z"/>
<path d="M2373 2260 c0 -25 2 -35 4 -22 2 12 2 32 0 45 -2 12 -4 2 -4 -23z"/>
<path d="M381 2274 c0 -11 3 -14 6 -6 3 7 2 16 -1 19 -3 4 -6 -2 -5 -13z"/>
<path d="M1762 2265 c0 -16 2 -22 5 -12 2 9 2 23 0 30 -3 6 -5 -1 -5 -18z"/>
<path d="M3532 2253 c-15 -48 -8 -55 8 -8 7 20 10 38 8 41 -3 2 -10 -13 -16
-33z"/>
<path d="M390 2245 c0 -5 5 -17 10 -25 5 -8 10 -10 10 -5 0 6 -5 17 -10 25 -5
8 -10 11 -10 5z"/>
<path d="M670 2246 c0 -11 40 -86 45 -86 3 0 -4 19 -16 43 -23 45 -29 54 -29
43z"/>
<path d="M3232 2205 c-12 -25 -20 -45 -17 -45 7 0 47 81 43 86 -3 2 -14 -17
-26 -41z"/>
<path d="M1772 2210 c0 -14 2 -19 5 -12 2 6 2 18 0 25 -3 6 -5 1 -5 -13z"/>
<path d="M2151 2214 c0 -11 3 -14 6 -6 3 7 2 16 -1 19 -3 4 -6 -2 -5 -13z"/>
<path d="M410 2197 c0 -17 50 -105 94 -164 204 -278 611 -485 1101 -559 169
-26 551 -26 720 0 459 70 834 249 1058 506 29 33 61 74 71 92 23 41 12 29 -44
-46 -24 -32 -76 -87 -114 -122 l-70 -64 -96 0 c-79 0 -100 -4 -125 -21 -52
-35 -224 -119 -309 -150 -226 -84 -456 -123 -731 -123 -275 0 -505 39 -731
123 -85 31 -257 115 -309 150 -25 17 -46 21 -126 21 l-95 0 -76 70 c-85 78
-135 141 -184 234 -19 33 -34 57 -34 53z"/>
<path d="M3492 2155 c-12 -25 -20 -45 -17 -45 7 0 47 81 43 86 -3 2 -14 -17
-26 -41z"/>
<path d="M1781 2164 c0 -11 3 -14 6 -6 3 7 2 16 -1 19 -3 4 -6 -2 -5 -13z"/>
<path d="M758 2095 c21 -30 120 -128 157 -155 11 -8 -5 9 -37 38 -31 29 -76
74 -99 100 -23 26 -32 34 -21 17z"/>
<path d="M3105 2036 c-44 -45 -96 -95 -115 -110 l-35 -27 35 22 c43 28 155
134 182 172 11 15 18 27 16 26 -2 0 -39 -38 -83 -83z"/>
<path d="M1810 2075 c0 -5 5 -17 10 -25 5 -8 10 -10 10 -5 0 6 -5 17 -10 25
-5 8 -10 11 -10 5z"/>
<path d="M2106 2065 c-9 -26 -7 -32 5 -12 6 10 9 21 6 23 -2 3 -7 -2 -11 -11z"/>
<path d="M1880 1955 c13 -14 26 -25 28 -25 3 0 -5 11 -18 25 -13 14 -26 25
-28 25 -3 0 5 -11 18 -25z"/>
<path d="M2039 1953 l-24 -28 28 24 c25 23 32 31 24 31 -2 0 -14 -12 -28 -27z"/>
<path d="M1953 1913 c9 -2 23 -2 30 0 6 3 -1 5 -18 5 -16 0 -22 -2 -12 -5z"/>
<path d="M1010 1876 c0 -3 9 -10 20 -16 11 -6 20 -8 20 -6 0 3 -9 10 -20 16
-11 6 -20 8 -20 6z"/>
<path d="M2894 1864 c-18 -14 -18 -15 4 -4 12 6 22 13 22 15 0 8 -5 6 -26 -11z"/>
<path d="M1080 1835 c0 -7 81 -47 86 -43 2 3 -17 14 -41 26 -25 12 -45 20 -45
17z"/>
<path d="M2800 1815 c-25 -13 -41 -24 -37 -25 11 0 87 39 87 45 0 7 0 7 -50
-20z"/>
<path d="M1210 1770 c8 -5 20 -10 25 -10 6 0 3 5 -5 10 -8 5 -19 10 -25 10 -5
0 -3 -5 5 -10z"/>
<path d="M2700 1770 c-8 -5 -10 -10 -5 -10 6 0 17 5 25 10 8 5 11 10 5 10 -5
0 -17 -5 -25 -10z"/>
<path d="M1260 1752 c8 -5 26 -13 40 -16 17 -5 20 -4 10 2 -8 5 -26 13 -40 16
-17 5 -20 4 -10 -2z"/>
<path d="M2635 1745 c-25 -12 -26 -14 -5 -9 28 7 60 23 45 23 -5 0 -23 -6 -40
-14z"/>
<path d="M1345 1720 c11 -5 27 -9 35 -9 9 0 8 4 -5 9 -11 5 -27 9 -35 9 -9 0
-8 -4 5 -9z"/>
<path d="M2555 1720 c-13 -5 -14 -9 -5 -9 8 0 24 4 35 9 13 5 14 9 5 9 -8 0
-24 -4 -35 -9z"/>
<path d="M1438 1693 c7 -3 16 -2 19 1 4 3 -2 6 -13 5 -11 0 -14 -3 -6 -6z"/>
<path d="M2478 1693 c7 -3 16 -2 19 1 4 3 -2 6 -13 5 -11 0 -14 -3 -6 -6z"/>
<path d="M1478 1683 c7 -3 16 -2 19 1 4 3 -2 6 -13 5 -11 0 -14 -3 -6 -6z"/>
<path d="M2438 1683 c7 -3 16 -2 19 1 4 3 -2 6 -13 5 -11 0 -14 -3 -6 -6z"/>
<path d="M1518 1673 c6 -2 18 -2 25 0 6 3 1 5 -13 5 -14 0 -19 -2 -12 -5z"/>
<path d="M2388 1673 c6 -2 18 -2 25 0 6 3 1 5 -13 5 -14 0 -19 -2 -12 -5z"/>
<path d="M1573 1663 c9 -2 23 -2 30 0 6 3 -1 5 -18 5 -16 0 -22 -2 -12 -5z"/>
<path d="M2333 1663 c9 -2 23 -2 30 0 6 3 -1 5 -18 5 -16 0 -22 -2 -12 -5z"/>
<path d="M1633 1653 c9 -2 23 -2 30 0 6 3 -1 5 -18 5 -16 0 -22 -2 -12 -5z"/>
<path d="M2273 1653 c9 -2 23 -2 30 0 6 3 -1 5 -18 5 -16 0 -22 -2 -12 -5z"/>
<path d="M973 1161 c-163 -56 -246 -232 -189 -401 26 -76 110 -160 186 -186
201 -68 403 65 417 275 16 220 -203 385 -414 312z m149 -101 c27 0 89 -60 109
-105 66 -145 -53 -317 -195 -281 -33 8 -93 61 -113 100 -36 69 -13 197 45 249
27 25 92 48 117 42 11 -3 28 -5 37 -5z"/>
<path d="M2214 1166 c-178 -58 -266 -262 -185 -431 117 -248 475 -234 571 22
24 65 26 152 4 216 -21 61 -94 141 -158 174 -61 31 -168 40 -232 19z m182
-128 c54 -37 78 -83 82 -158 3 -53 0 -75 -17 -108 -30 -60 -81 -95 -144 -99
-61 -5 -99 14 -143 73 -39 51 -47 160 -15 222 47 93 155 125 237 70z"/>
<path d="M237 1153 c-4 -3 -7 -28 -7 -55 l0 -48 95 0 95 0 0 -240 0 -240 65 0
65 0 0 240 0 240 90 0 90 0 0 55 0 55 -243 0 c-134 0 -247 -3 -250 -7z"/>
<path d="M1400 1152 c0 -5 50 -86 110 -181 l110 -173 0 -114 0 -114 70 0 70 0
0 115 0 114 105 166 c58 91 108 172 111 180 5 12 -6 15 -64 15 l-71 0 -72
-120 c-39 -66 -75 -120 -79 -120 -4 0 -38 54 -75 120 l-66 120 -75 0 c-41 0
-74 -4 -74 -8z"/>
<path d="M2660 1105 l0 -55 95 0 95 0 0 -240 0 -240 65 0 65 0 0 240 0 240 90
0 90 0 0 55 0 55 -250 0 -250 0 0 -55z"/>
<path d="M3332 1088 c-17 -40 -71 -169 -121 -287 -50 -118 -91 -218 -91 -222
0 -5 33 -9 74 -9 l74 0 24 63 24 62 123 0 123 0 23 -60 22 -60 77 -3 c76 -3
77 -2 71 19 -4 13 -58 144 -119 293 l-111 271 -81 3 -82 3 -30 -73z m153 -178
c21 -56 35 -103 33 -106 -3 -3 -40 -4 -81 -2 l-75 3 32 85 c18 47 35 93 39
103 4 9 8 17 10 17 2 0 21 -45 42 -100z"/>
</g>
</svg>
