<svg width="20" height="20" viewBox="0 0 20 20" fill="none" xmlns="http://www.w3.org/2000/svg">
<g id="fi-rr-check">
<rect y="0.00195312" width="20" height="20" rx="10" fill="#13BD1A"/>
<path id="Vector" d="M15.584 6.48438C15.5049 6.39811 15.409 6.32859 15.3021 6.27997C15.1952 6.23136 15.0795 6.20467 14.962 6.20149C14.8445 6.19832 14.7275 6.21873 14.6181 6.2615C14.5087 6.30426 14.4091 6.36851 14.3254 6.45038L8.6397 11.9499L5.92827 9.11088C5.84808 9.02535 5.75123 8.95682 5.64358 8.90944C5.53592 8.86206 5.41971 8.83682 5.30194 8.83523C5.18417 8.83364 5.06731 8.85574 4.95839 8.9002C4.84948 8.94465 4.75079 9.01054 4.66827 9.09388C4.49904 9.26441 4.4029 9.49325 4.39997 9.73249C4.39704 9.97174 4.48756 10.2028 4.65256 10.3774L7.97685 13.8595C8.05666 13.9438 8.15265 14.0114 8.25916 14.0584C8.36568 14.1054 8.48059 14.1309 8.59715 14.1332C8.71371 14.1356 8.82958 14.1149 8.93795 14.0723C9.04633 14.0296 9.14503 13.966 9.22827 13.885L15.5511 7.76788C15.9083 7.42363 15.9226 6.84705 15.584 6.48438Z" fill="white"/>
</g>
</svg>
