<svg width="14" height="16" viewBox="0 0 14 16" fill="none" xmlns="http://www.w3.org/2000/svg">
<path d="M8.8162 0H1.55135C0.68108 0 0 0.600001 0 1.36667V13.9667C0 14.7334 0.68108 15.3334 1.55135 15.3334H12.4486C13.3189 15.3334 14 14.7334 14 13.9667V4.56667L8.8162 0Z" fill="url(#paint0_linear_583_6811)"/>
<path d="M8.81641 3.2C8.81641 3.96667 9.49749 4.56667 10.3678 4.56667H14.0002L8.81641 0V3.2Z" fill="white" fill-opacity="0.4"/>
<path d="M12.4486 15.3333H1.55135C0.68108 15.3333 0 14.7333 0 13.9667V14.6333C0 15.4 0.68108 16 1.55135 16H12.4486C13.3189 16 14 15.4 14 14.6333V13.9667C14 14.7333 13.3189 15.3333 12.4486 15.3333Z" fill="#03C8F5" fill-opacity="0.9"/>
<path d="M3.5 6.43331V12.6C3.5 12.8 3.6319 12.9333 3.82976 12.9333H9.93024C10.1281 12.9333 10.26 12.8 10.26 12.6V6.43331C10.26 6.23331 10.1281 6.09998 9.93024 6.09998H3.82976C3.6319 6.09998 3.5 6.26664 3.5 6.43331ZM4.15951 6.76664H9.60049V8.33331L8.57824 7.39998C8.47932 7.33331 8.38039 7.33331 8.28146 7.33331C8.18254 7.36664 8.08361 7.43331 8.05063 7.49998L6.83054 9.96665L5.9402 8.56665C5.87424 8.46665 5.80829 8.43331 5.70937 8.43331C5.61044 8.43331 5.51151 8.46665 5.44556 8.53331L4.15951 9.83331V6.76664Z" fill="white"/>
<defs>
<linearGradient id="paint0_linear_583_6811" x1="6.99999" y1="0" x2="6.99999" y2="15.3334" gradientUnits="userSpaceOnUse">
<stop stop-color="#01ADEE"/>
<stop offset="1" stop-color="#03C8F5" stop-opacity="0.9"/>
</linearGradient>
</defs>
</svg>
