<svg width="14" height="16" viewBox="0 0 14 16" fill="none" xmlns="http://www.w3.org/2000/svg">
<g id="Frame" clip-path="url(#clip0_3791_18365)">
<g id="Artboard">
<g id="files-icon-PDF">
<path id="Combined-Shape" fill-rule="evenodd" clip-rule="evenodd" d="M8 0L13.3333 5.33333V14.1333C13.3333 15.1643 12.4976 16 11.4667 16H1.86667C0.835735 16 0 15.1643 0 14.1333V1.86667C0 0.835735 0.835735 0 1.86667 0H8Z" fill="#E94848"/>
<path id="acrobat-shape" d="M6.21772 5.86621C5.86816 5.86621 5.58068 6.15369 5.58068 6.50325C5.58068 6.9378 5.82213 7.47729 6.07638 7.98436C5.87764 8.60648 5.65212 9.27317 5.36369 9.83575C4.77335 10.0674 4.24688 10.2396 3.93036 10.4947C3.92542 10.4997 3.92077 10.505 3.91642 10.5106C3.80076 10.6289 3.73328 10.7899 3.73328 10.9625C3.73328 11.3121 4.02075 11.5995 4.37031 11.5995C4.54077 11.5995 4.70531 11.5359 4.8242 11.4144C4.82832 11.4113 4.8323 11.4079 4.83615 11.4045C5.06914 11.1262 5.34387 10.6215 5.58865 10.1602C6.15279 9.93832 6.74407 9.71251 7.31462 9.57695C7.73113 9.91262 8.33369 10.1344 8.82957 10.1344C9.17913 10.1344 9.46661 9.84688 9.46661 9.49732C9.46661 9.14776 9.17913 8.86029 8.82957 8.86029C8.43191 8.86029 7.85402 9.00224 7.41216 9.15093C7.05402 8.81471 6.72496 8.39479 6.48846 7.94853C6.65744 7.42797 6.85476 6.90711 6.85476 6.50325C6.85476 6.15369 6.56728 5.86621 6.21772 5.86621ZM6.21772 6.24843C6.36071 6.24843 6.47254 6.36025 6.47254 6.50325C6.47254 6.69445 6.37015 7.04648 6.25156 7.42496C6.09311 7.05677 5.96291 6.70352 5.96291 6.50325C5.96291 6.36025 6.07473 6.24843 6.21772 6.24843ZM6.32721 8.42829C6.51881 8.73306 6.74321 9.01666 6.98814 9.26839C6.61036 9.37169 6.2414 9.50405 5.8773 9.64265C6.05316 9.24573 6.19394 8.83387 6.32721 8.42829ZM8.82957 9.24251C8.97257 9.24251 9.08439 9.35433 9.08439 9.49732C9.08439 9.64032 8.97257 9.75214 8.82957 9.75214C8.5425 9.75214 8.13449 9.62255 7.80832 9.44158C8.18271 9.33572 8.59124 9.24251 8.82957 9.24251ZM5.02726 10.3832C4.84812 10.703 4.67005 11.0014 4.5455 11.1516C4.50295 11.1923 4.44636 11.2173 4.37031 11.2173C4.22732 11.2173 4.1155 11.1055 4.1155 10.9625C4.1155 10.8952 4.1441 10.8284 4.18318 10.7853C4.33262 10.6697 4.65774 10.5311 5.02726 10.3832Z" fill="white"/>
<g id="Path">
<g id="Vector" filter="url(#filter0_d_3791_18365)">
<path d="M13.3334 5.33301H9.96099C8.93006 5.33301 8.00004 4.40299 8.00004 3.37206V-0.000326157L13.3334 5.33301Z" fill="black"/>
</g>
<path id="Vector_2" d="M13.3334 5.33301H9.96099C8.93006 5.33301 8.00004 4.40299 8.00004 3.37206V-0.000326157L13.3334 5.33301Z" fill="#FF9A8F"/>
</g>
</g>
</g>
</g>
<defs>
<filter id="filter0_d_3791_18365" x="6" y="-4" width="9.33337" height="9.33301" filterUnits="userSpaceOnUse" color-interpolation-filters="sRGB">
<feFlood flood-opacity="0" result="BackgroundImageFix"/>
<feColorMatrix in="SourceAlpha" type="matrix" values="0 0 0 0 0 0 0 0 0 0 0 0 0 0 0 0 0 0 127 0" result="hardAlpha"/>
<feOffset dy="-2"/>
<feGaussianBlur stdDeviation="1"/>
<feComposite in2="hardAlpha" operator="out"/>
<feColorMatrix type="matrix" values="0 0 0 0 0 0 0 0 0 0 0 0 0 0 0 0 0 0 0.0909637 0"/>
<feBlend mode="normal" in2="BackgroundImageFix" result="effect1_dropShadow_3791_18365"/>
<feBlend mode="normal" in="SourceGraphic" in2="effect1_dropShadow_3791_18365" result="shape"/>
</filter>
<clipPath id="clip0_3791_18365">
<rect width="13.3333" height="16" fill="white"/>
</clipPath>
</defs>
</svg>
