<svg xmlns="http://www.w3.org/2000/svg" width="20" height="20" viewBox="0 0 20 20" fill="none">
<path d="M13.4496 2.46719L5.92461 4.96719C0.866276 6.65886 0.866276 9.41719 5.92461 11.1005L8.15794 11.8422L8.89961 14.0755C10.5829 19.1339 13.3496 19.1339 15.0329 14.0755L17.5413 6.55886C18.6579 3.18386 16.8246 1.34219 13.4496 2.46719ZM13.7163 6.95052L10.5496 10.1339C10.4246 10.2589 10.2663 10.3172 10.1079 10.3172C9.94961 10.3172 9.79128 10.2589 9.66628 10.1339C9.42461 9.89219 9.42461 9.49219 9.66628 9.25052L12.8329 6.06719C13.0746 5.82552 13.4746 5.82552 13.7163 6.06719C13.9579 6.30886 13.9579 6.70886 13.7163 6.95052Z" fill="black" fill-opacity="0.6"/>
</svg>