<svg width="12" height="10" viewBox="0 0 12 10" fill="none" xmlns="http://www.w3.org/2000/svg">
<g id="Group">
<path id="Vector" d="M5.9586 1.04735L8.84477 3.61284C9.38408 4.09241 9.65432 4.33249 9.75406 4.61607C9.84136 4.86475 9.84136 5.13575 9.75406 5.38444C9.65432 5.66743 9.38466 5.90751 8.84477 6.38709L5.95802 8.95315C5.71331 9.17061 5.59095 9.27963 5.48714 9.28369C5.44251 9.28538 5.39809 9.27673 5.35736 9.25842C5.31662 9.24012 5.28066 9.21264 5.25228 9.17815C5.18617 9.09755 5.18617 8.93401 5.18617 8.60637V6.98844C3.77817 6.98844 2.29073 7.44077 1.20515 8.24335C0.639747 8.66088 0.356755 8.86964 0.249473 8.86211C0.202784 8.86121 0.157185 8.84783 0.117414 8.82336C0.0776433 8.79888 0.0451506 8.76421 0.0233115 8.72293C-0.0323591 8.63015 0.0169327 8.34135 0.115516 7.76435C0.756307 4.01413 3.33687 3.0109 5.18617 3.0109V1.39297C5.18617 1.06533 5.18617 0.901796 5.25228 0.82119C5.28072 0.786803 5.3167 0.759442 5.35744 0.741237C5.39817 0.723032 5.44256 0.714473 5.48714 0.716228C5.59153 0.719707 5.7133 0.829309 5.9586 1.04735Z" fill="#2FB2E1"/>
<path id="Vector_2" fill-rule="evenodd" clip-rule="evenodd" d="M7.49943 0.35499C7.53826 0.313101 7.58497 0.279273 7.63688 0.255436C7.68879 0.2316 7.74489 0.218223 7.80197 0.216069C7.85905 0.213915 7.916 0.223026 7.96956 0.242882C8.02312 0.262739 8.07224 0.292951 8.11412 0.331794L11.1389 3.14084C11.4177 3.39974 11.6386 3.71476 11.7869 4.06515C11.9352 4.41555 12.0076 4.79338 11.9994 5.17378C11.9912 5.55419 11.9025 5.92854 11.7392 6.2722C11.5759 6.61587 11.3416 6.92105 11.0519 7.16767L8.10021 9.68039C8.05672 9.71743 8.00637 9.74556 7.95201 9.76314C7.89766 9.78073 7.84038 9.78744 7.78343 9.78289C7.72649 9.77834 7.671 9.76262 7.62013 9.73662C7.56926 9.71063 7.52401 9.67487 7.48696 9.63138C7.44991 9.5879 7.42179 9.53755 7.4042 9.48319C7.38661 9.42884 7.3799 9.37156 7.38445 9.31461C7.389 9.25767 7.40473 9.20218 7.43072 9.15131C7.45672 9.10044 7.49248 9.05519 7.53596 9.01814L10.4877 6.50543C10.6839 6.33843 10.8426 6.13175 10.9533 5.899C11.0639 5.66626 11.124 5.41271 11.1296 5.15507C11.1352 4.89742 11.0861 4.64151 10.9857 4.40419C10.8852 4.16686 10.7357 3.9535 10.5468 3.77815L7.52204 0.969686C7.48015 0.93085 7.44633 0.884143 7.42249 0.832233C7.39865 0.780322 7.38528 0.724224 7.38312 0.667143C7.38097 0.610062 7.39008 0.553115 7.40994 0.499555C7.42979 0.445996 7.46 0.396872 7.49885 0.35499H7.49943Z" fill="#2FB2E1"/>
</g>
</svg>
