<svg width="20" height="20" viewBox="0 0 20 20" fill="none" xmlns="http://www.w3.org/2000/svg">
<g id="icons_130028 1" clip-path="url(#clip0_4042_131706)">
<path id="Vector" d="M14.2881 5.67797C14.8136 6.20339 14.4576 6.74576 14.4576 6.74576L13.661 7.5678L12.3898 6.35593L13.1864 5.5339C13.9068 5.22034 14.2881 5.68644 14.2881 5.67797ZM5.36441 13.3898V14.5593H6.61864L13.0763 8.20339L11.7797 6.98305L5.36441 13.3898ZM20 10C20 15.5254 15.5254 20 10 20C4.47458 20 0 15.5254 0 10C0 4.47458 4.47458 0 10 0C15.5254 0 20 4.47458 20 10ZM10.4746 14.9068C10.4746 14.5085 10.1525 14.1864 9.75424 14.1864C9.35593 14.1864 9.0339 14.5085 9.0339 14.9068C9.0339 15.3051 9.35593 15.6271 9.75424 15.6271C10.1525 15.6271 10.4746 15.3051 10.4746 14.9068ZM12.4915 14.9068C12.4915 14.5085 12.1695 14.1864 11.7712 14.1864C11.3729 14.1864 11.0508 14.5085 11.0508 14.9068C11.0508 15.3051 11.3729 15.6271 11.7712 15.6271C12.1695 15.6271 12.4915 15.3051 12.4915 14.9068ZM14.5169 14.9068C14.5169 14.5085 14.1949 14.1864 13.7966 14.1864C13.3983 14.1864 13.0763 14.5085 13.0763 14.9068C13.0763 15.3051 13.3983 15.6271 13.7966 15.6271C14.1949 15.6271 14.5169 15.3051 14.5169 14.9068ZM14.9831 5.01695C14.3305 4.36441 13.3305 4.31356 12.6186 4.83898L4.48305 12.9746V15.5085H7.01695L15.1525 7.37288C15.6864 6.66949 15.6271 5.66949 14.9831 5.01695Z" fill="#C6C6C6"/>
</g>
<defs>
<clipPath id="clip0_4042_131706">
<rect width="20" height="20" fill="white"/>
</clipPath>
</defs>
</svg>
