<svg class="send-2" width="20" height="20" viewBox="0 0 20 20" fill="none"
    xmlns="http://www.w3.org/2000/svg">
    <g filter="url(#filter0_dd_290_1836)">
        <path
            d="M13.4495 2.4667L5.92449 4.9667C0.866154 6.65837 0.866154 9.4167 5.92449 11.1L8.15782 11.8417L8.89949 14.075C10.5828 19.1334 13.3495 19.1334 15.0328 14.075L17.5412 6.55837C18.6578 3.18337 16.8245 1.3417 13.4495 2.4667ZM13.7162 6.95004L10.5495 10.1334C10.4245 10.2584 10.2662 10.3167 10.1078 10.3167C9.94949 10.3167 9.79115 10.2584 9.66615 10.1334C9.42449 9.8917 9.42449 9.4917 9.66615 9.25004L12.8328 6.0667C13.0745 5.82504 13.4745 5.82504 13.7162 6.0667C13.9578 6.30837 13.9578 6.70837 13.7162 6.95004Z"
            fill="white" />
    </g>
    <defs>
        <filter id="filter0_dd_290_1836" x="-0.0192628" y="1.19623" width="20.0377"
            height="20.0727" filterUnits="userSpaceOnUse"
            color-interpolation-filters="sRGB">
            <feFlood flood-opacity="0" result="BackgroundImageFix" />
            <feColorMatrix in="SourceAlpha" type="matrix"
                values="0 0 0 0 0 0 0 0 0 0 0 0 0 0 0 0 0 0 127 0" result="hardAlpha" />
            <feOffset dy="1.25" />
            <feGaussianBlur stdDeviation="1.075" />
            <feComposite in2="hardAlpha" operator="out" />
            <feColorMatrix type="matrix"
                values="0 0 0 0 0 0 0 0 0 0 0 0 0 0 0 0 0 0 0.21 0" />
            <feBlend mode="normal" in2="BackgroundImageFix"
                result="effect1_dropShadow_290_1836" />
            <feColorMatrix in="SourceAlpha" type="matrix"
                values="0 0 0 0 0 0 0 0 0 0 0 0 0 0 0 0 0 0 127 0" result="hardAlpha" />
            <feOffset />
            <feGaussianBlur stdDeviation="0.47" />
            <feComposite in2="hardAlpha" operator="out" />
            <feColorMatrix type="matrix"
                values="0 0 0 0 0 0 0 0 0 0 0 0 0 0 0 0 0 0 0.1 0" />
            <feBlend mode="normal" in2="effect1_dropShadow_290_1836"
                result="effect2_dropShadow_290_1836" />
            <feBlend mode="normal" in="SourceGraphic" in2="effect2_dropShadow_290_1836"
                result="shape" />
        </filter>
    </defs>
</svg>
