<svg width="16" height="16" viewBox="0 0 16 16" fill="none" xmlns="http://www.w3.org/2000/svg">
<path d="M13.3779 7.37881H13.3773C13.2958 7.37888 13.2151 7.395 13.1398 7.42626C13.0646 7.45751 12.9962 7.50328 12.9386 7.56097C12.881 7.61865 12.8354 7.68711 12.8042 7.76243C12.7731 7.83776 12.7571 7.91848 12.7572 7.99999C12.7564 8.87009 12.5171 9.72334 12.0654 10.467C11.6136 11.2106 10.9667 11.8162 10.1949 12.2179C9.42304 12.6196 8.55587 12.8021 7.68761 12.7454C6.81935 12.6888 5.98323 12.3953 5.27011 11.8967C3.12118 10.392 2.59703 7.41949 4.10175 5.27052C5.60647 3.12156 8.57901 2.59736 10.728 4.10213C11.0531 4.32918 11.3485 4.59596 11.6075 4.89628H9.86093C9.69633 4.89628 9.53847 4.96167 9.42208 5.07806C9.30569 5.19445 9.2403 5.35231 9.2403 5.51692C9.2403 5.68152 9.30569 5.83938 9.42208 5.95577C9.53847 6.07216 9.69633 6.13755 9.86093 6.13755H12.7572C12.9218 6.13755 13.0797 6.07216 13.1961 5.95577C13.3125 5.83938 13.3778 5.68152 13.3778 5.51692V2.62063C13.3778 2.45603 13.3125 2.29817 13.1961 2.18178C13.0797 2.06539 12.9218 2 12.7572 2C12.5926 2 12.4348 2.06539 12.3184 2.18178C12.202 2.29817 12.1366 2.45603 12.1366 2.62063V3.65417C11.9188 3.44752 11.6859 3.25736 11.4399 3.08525C10.7946 2.63339 10.0666 2.31306 9.29745 2.14255C8.52832 1.97204 7.73313 1.9547 6.9573 2.0915C6.18147 2.22831 5.44018 2.51658 4.77575 2.93987C4.11133 3.36316 3.53678 3.91317 3.08492 4.5585C2.17234 5.86181 1.81488 7.47426 2.09117 9.04113C2.36746 10.608 3.25486 12.0009 4.55817 12.9135C5.56161 13.6203 6.75894 13.9998 7.98631 14C8.33982 13.9998 8.69265 13.9688 9.04076 13.9073C10.4298 13.6623 11.6881 12.9357 12.5947 11.8552C13.5014 10.7747 13.9984 9.40938 13.9985 7.9989C13.9983 7.8344 13.9329 7.67668 13.8165 7.56041C13.7001 7.44414 13.5424 7.37882 13.3779 7.37881Z" fill="#FF1640"/>
</svg>
