<svg width="20" height="20" viewBox="0 0 40 40" fill="none" xmlns="http://www.w3.org/2000/svg">
    <path fill-rule="evenodd" clip-rule="evenodd" d="M20.7195 3C20.9232 3 21.1223 3.04104 21.3047 3.11856C21.4902 3.19607 21.6543 3.30551 21.7941 3.44535L30.9139 12.5651C31.0537 12.7034 31.1632 12.8691 31.2407 13.0545C31.3182 13.2369 31.3592 13.436 31.3592 13.6397V16.6796C31.3592 17.5191 30.6787 18.1996 29.8393 18.1996C28.9998 18.1996 28.3193 17.5191 28.3193 16.6796V15.1597H20.7195C19.879 15.1597 19.1996 14.4802 19.1996 13.6397V6.03992H8.55987C7.72086 6.03992 7.03992 6.72086 7.03992 7.55987V28.8393C7.03992 29.6783 7.72086 30.3592 8.55987 30.3592H19.1996C20.039 30.3592 20.7195 31.0397 20.7195 31.8792C20.7195 32.7186 20.039 33.3992 19.1996 33.3992H8.55987C6.04586 33.3992 4 31.3533 4 28.8393V7.55987C4 5.04586 6.04586 3 8.55987 3H20.7195ZM22.2395 8.18914V12.1197H26.1701L22.2395 8.18914Z" fill="#3F2BC8"/>
    <path fill-rule="evenodd" clip-rule="evenodd" d="M30.6408 34.5978L30.8558 35.9045C30.4705 35.967 30.0807 35.999 29.6905 36.0002L29.3979 35.9954L29.4465 34.6722C29.8461 34.6867 30.2463 34.6618 30.6408 34.5978ZM27.1144 34.1125C27.4039 34.2475 27.7035 34.3589 28.0104 34.446L28.2419 34.5068L27.9269 35.7934C27.5474 35.7017 27.1758 35.5802 26.8157 35.4295L26.5478 35.3111L27.1144 34.1125ZM27.7827 20.3055C28.0427 20.563 28.0427 20.9821 27.7827 21.2409L27.119 21.8982C29.7516 20.9302 32.7882 21.5301 34.8521 23.5785C37.7161 26.4197 37.7161 31.0272 34.852 33.8693C34.4727 34.2453 34.0581 34.5758 33.6146 34.8571C33.5937 34.8708 33.5723 34.8842 33.5509 34.8975C33.5437 34.9015 33.5365 34.9059 33.5293 34.9103L33.5183 34.9175C33.2109 35.1061 32.8906 35.2712 32.5599 35.412L32.31 35.5129L31.8305 34.2775C32.2022 34.1352 32.5592 33.956 32.8966 33.7417L32.8488 33.7698L33.0574 33.6357C33.3599 33.4298 33.6451 33.1948 33.9098 32.9325C36.2525 30.6078 36.2525 26.8392 33.9097 24.5151C32.0955 22.7146 29.3617 22.2818 27.1079 23.3377C27.0987 23.3422 27.0898 23.3464 27.0808 23.3507L27.7827 24.0467C28.0427 24.3055 28.0427 24.7233 27.7827 24.9821C27.522 25.2403 27.1 25.241 26.8394 24.9821L24.954 23.1112C24.694 22.853 24.694 22.4339 24.954 22.1757L26.8394 20.3055C27.1 20.0466 27.522 20.0466 27.7827 20.3055ZM25.2126 32.7117C25.2821 32.7879 25.3526 32.8614 25.4343 32.9424C25.5936 33.0997 25.7604 33.2472 25.9342 33.3845L26.1102 33.5185L25.3189 34.5842C25.0286 34.3716 24.753 34.1369 24.4931 33.8802C24.4276 33.8153 24.3675 33.7538 24.3096 33.6925L24.2241 33.6003L25.2126 32.7117ZM23.9981 30.6788C24.1027 30.9779 24.2313 31.2683 24.3831 31.5475L24.5012 31.7547L23.3545 32.4303C23.1545 32.0955 22.9827 31.7462 22.84 31.3855L22.7385 31.113L23.9981 30.6788ZM22.3496 28.2393L23.68 28.3271C23.6588 28.6439 23.6631 28.9619 23.6927 29.2779L23.7196 29.5144L22.398 29.6894C22.3335 29.2089 22.3173 28.723 22.3496 28.2393ZM23.7494 25.5935C24.0901 25.7322 24.253 26.1189 24.1133 26.4572C24.0803 26.5373 24.0484 26.6198 24.0166 26.7079C24.0087 26.7297 23.9998 26.7509 23.9899 26.7714L23.9963 26.7741C23.953 26.898 23.9137 27.0245 23.8784 27.1531L23.8284 27.3477L22.5312 27.0415C22.5693 26.8823 22.6125 26.7251 22.6606 26.5703L22.7367 26.34C22.7442 26.314 22.7521 26.2871 22.7617 26.2603C22.8001 26.1544 22.8389 26.0536 22.8797 25.9548C23.0194 25.6165 23.4088 25.4548 23.7494 25.5935Z" fill="#FF4800" stroke="#FF4800" stroke-height="1.5"/>
</svg>
