<svg width="20" height="20" viewBox="0 0 20 20" fill="none" xmlns="http://www.w3.org/2000/svg">
<g id="vuesax/linear/user-add">
<g id="user-add">
<path id="Vector" d="M9.99992 9.99935C12.3011 9.99935 14.1666 8.13387 14.1666 5.83268C14.1666 3.5315 12.3011 1.66602 9.99992 1.66602C7.69873 1.66602 5.83325 3.5315 5.83325 5.83268C5.83325 8.13387 7.69873 9.99935 9.99992 9.99935Z" stroke="#0374F6" stroke-width="1.2" stroke-linecap="round" stroke-linejoin="round"/>
<path id="Vector_2" d="M2.84155 18.3333C2.84155 15.1083 6.04988 12.5 9.99988 12.5C10.7999 12.5 11.5749 12.6083 12.2999 12.8083" stroke="#0374F6" stroke-width="1.2" stroke-linecap="round" stroke-linejoin="round"/>
<path id="Vector_3" d="M18.3334 14.9993C18.3334 15.266 18.3001 15.5243 18.2334 15.7743C18.1584 16.1077 18.0251 16.4327 17.8501 16.716C17.2751 17.6827 16.2167 18.3327 15.0001 18.3327C14.1417 18.3327 13.3667 18.0077 12.7834 17.4743C12.5334 17.2577 12.3167 16.9993 12.1501 16.716C11.8417 16.216 11.6667 15.6243 11.6667 14.9993C11.6667 14.0993 12.0251 13.2744 12.6084 12.6744C13.2168 12.0494 14.0667 11.666 15.0001 11.666C15.9834 11.666 16.8751 12.091 17.4751 12.7744C18.0084 13.366 18.3334 14.1493 18.3334 14.9993Z" stroke="#0374F6" stroke-width="1.2" stroke-miterlimit="10" stroke-linecap="round" stroke-linejoin="round"/>
<g id="Group">
<path id="Vector_4" d="M16.2416 14.9844H13.7583" stroke="#0374F6" stroke-width="1.2" stroke-miterlimit="10" stroke-linecap="round" stroke-linejoin="round"/>
<path id="Vector_5" d="M15 13.7676V16.2592" stroke="#0374F6" stroke-width="1.2" stroke-miterlimit="10" stroke-linecap="round" stroke-linejoin="round"/>
</g>
</g>
</g>
</svg>
